<mxfile host="app.diagrams.net" modified="2024-01-11T22:30:12.511Z" agent="Mozilla/5.0 (Windows NT 10.0; Win64; x64) AppleWebKit/537.36 (KHTML, like Gecko) Chrome/120.0.0.0 Safari/537.36" etag="IoDV9275LRZyRICnT3Qr" version="22.1.18" type="device">
  <diagram name="Page-1" id="xEFeUECZUe2D8e3gBROa">
    <mxGraphModel dx="989" dy="607" grid="1" gridSize="10" guides="1" tooltips="1" connect="1" arrows="1" fold="1" page="1" pageScale="1" pageWidth="827" pageHeight="1169" math="0" shadow="0">
      <root>
        <mxCell id="0" />
        <mxCell id="1" parent="0" />
        <mxCell id="WYB-sU8SRp4ZLdjS0Onn-1" value="" style="rounded=0;whiteSpace=wrap;html=1;" vertex="1" parent="1">
          <mxGeometry x="120" y="120" width="280" height="520" as="geometry" />
        </mxCell>
        <mxCell id="WYB-sU8SRp4ZLdjS0Onn-2" value="" style="rounded=0;whiteSpace=wrap;html=1;" vertex="1" parent="1">
          <mxGeometry x="120" y="120" width="280" height="40" as="geometry" />
        </mxCell>
        <mxCell id="WYB-sU8SRp4ZLdjS0Onn-4" value="" style="ellipse;whiteSpace=wrap;html=1;aspect=fixed;" vertex="1" parent="1">
          <mxGeometry x="130" y="125" width="30" height="30" as="geometry" />
        </mxCell>
        <mxCell id="WYB-sU8SRp4ZLdjS0Onn-5" value="" style="rounded=0;whiteSpace=wrap;html=1;" vertex="1" parent="1">
          <mxGeometry x="130" y="180" width="190" height="90" as="geometry" />
        </mxCell>
        <mxCell id="WYB-sU8SRp4ZLdjS0Onn-6" value="Account A" style="text;html=1;strokeColor=none;fillColor=none;align=center;verticalAlign=middle;whiteSpace=wrap;rounded=0;" vertex="1" parent="1">
          <mxGeometry x="130" y="182" width="90" height="30" as="geometry" />
        </mxCell>
        <mxCell id="WYB-sU8SRp4ZLdjS0Onn-7" value="&lt;b&gt;&lt;font style=&quot;font-size: 18px;&quot;&gt;F&lt;/font&gt;&lt;/b&gt;" style="text;html=1;strokeColor=none;fillColor=none;align=center;verticalAlign=middle;whiteSpace=wrap;rounded=0;" vertex="1" parent="1">
          <mxGeometry x="116" y="126" width="60" height="30" as="geometry" />
        </mxCell>
        <mxCell id="WYB-sU8SRp4ZLdjS0Onn-8" value="" style="rounded=0;whiteSpace=wrap;html=1;" vertex="1" parent="1">
          <mxGeometry x="330" y="180" width="70" height="90" as="geometry" />
        </mxCell>
        <mxCell id="WYB-sU8SRp4ZLdjS0Onn-9" value="Account B" style="text;html=1;strokeColor=none;fillColor=none;align=center;verticalAlign=middle;whiteSpace=wrap;rounded=0;" vertex="1" parent="1">
          <mxGeometry x="320" y="180" width="90" height="30" as="geometry" />
        </mxCell>
        <mxCell id="WYB-sU8SRp4ZLdjS0Onn-12" value="&lt;font style=&quot;font-size: 17px;&quot;&gt;. . .&lt;/font&gt;" style="rounded=0;whiteSpace=wrap;html=1;" vertex="1" parent="1">
          <mxGeometry x="200" y="280" width="120" as="geometry" />
        </mxCell>
        <mxCell id="WYB-sU8SRp4ZLdjS0Onn-13" value="$ 7000" style="text;html=1;strokeColor=none;fillColor=none;align=center;verticalAlign=middle;whiteSpace=wrap;rounded=0;" vertex="1" parent="1">
          <mxGeometry x="256" y="235" width="60" height="30" as="geometry" />
        </mxCell>
        <mxCell id="WYB-sU8SRp4ZLdjS0Onn-14" value="" style="rounded=0;whiteSpace=wrap;html=1;" vertex="1" parent="1">
          <mxGeometry x="130" y="290" width="260" height="190" as="geometry" />
        </mxCell>
        <mxCell id="WYB-sU8SRp4ZLdjS0Onn-15" value="Activity" style="text;html=1;strokeColor=none;fillColor=none;align=center;verticalAlign=middle;whiteSpace=wrap;rounded=0;" vertex="1" parent="1">
          <mxGeometry x="130" y="290" width="70" height="30" as="geometry" />
        </mxCell>
        <mxCell id="WYB-sU8SRp4ZLdjS0Onn-17" value="" style="rounded=0;whiteSpace=wrap;html=1;" vertex="1" parent="1">
          <mxGeometry x="130" y="320" width="260" height="40" as="geometry" />
        </mxCell>
        <mxCell id="WYB-sU8SRp4ZLdjS0Onn-18" value="" style="rounded=0;whiteSpace=wrap;html=1;" vertex="1" parent="1">
          <mxGeometry x="130" y="360" width="260" height="40" as="geometry" />
        </mxCell>
        <mxCell id="WYB-sU8SRp4ZLdjS0Onn-19" value="+ $ 7000" style="text;html=1;strokeColor=none;fillColor=none;align=center;verticalAlign=middle;whiteSpace=wrap;rounded=0;" vertex="1" parent="1">
          <mxGeometry x="330" y="335" width="60" height="30" as="geometry" />
        </mxCell>
        <mxCell id="WYB-sU8SRp4ZLdjS0Onn-20" value="- $ 5" style="text;html=1;strokeColor=none;fillColor=none;align=center;verticalAlign=middle;whiteSpace=wrap;rounded=0;" vertex="1" parent="1">
          <mxGeometry x="323" y="370" width="60" height="30" as="geometry" />
        </mxCell>
        <mxCell id="WYB-sU8SRp4ZLdjS0Onn-21" value="GIA" style="text;html=1;strokeColor=none;fillColor=none;align=center;verticalAlign=middle;whiteSpace=wrap;rounded=0;" vertex="1" parent="1">
          <mxGeometry x="120" y="240" width="60" height="30" as="geometry" />
        </mxCell>
        <mxCell id="WYB-sU8SRp4ZLdjS0Onn-22" value="&lt;span style=&quot;color: rgb(0, 0, 0); font-family: Helvetica; font-size: 12px; font-style: normal; font-variant-ligatures: normal; font-variant-caps: normal; font-weight: 400; letter-spacing: normal; orphans: 2; text-align: center; text-indent: 0px; text-transform: none; widows: 2; word-spacing: 0px; -webkit-text-stroke-width: 0px; background-color: rgb(251, 251, 251); text-decoration-thickness: initial; text-decoration-style: initial; text-decoration-color: initial; float: none; display: inline !important;&quot;&gt;ISA&lt;/span&gt;" style="text;whiteSpace=wrap;html=1;" vertex="1" parent="1">
          <mxGeometry x="335" y="240" width="50" height="40" as="geometry" />
        </mxCell>
        <mxCell id="WYB-sU8SRp4ZLdjS0Onn-24" value="&lt;font style=&quot;font-size: 8px;&quot;&gt;Date: 20-03-2032&lt;/font&gt;" style="text;html=1;strokeColor=none;fillColor=none;align=center;verticalAlign=middle;whiteSpace=wrap;rounded=0;" vertex="1" parent="1">
          <mxGeometry x="115" y="313" width="100" height="30" as="geometry" />
        </mxCell>
        <mxCell id="WYB-sU8SRp4ZLdjS0Onn-25" value="&lt;font style=&quot;font-size: 8px;&quot;&gt;Date: 20-03-2032&lt;/font&gt;" style="text;html=1;strokeColor=none;fillColor=none;align=center;verticalAlign=middle;whiteSpace=wrap;rounded=0;" vertex="1" parent="1">
          <mxGeometry x="115" y="351" width="100" height="30" as="geometry" />
        </mxCell>
        <mxCell id="WYB-sU8SRp4ZLdjS0Onn-26" value="Transfer out" style="text;html=1;strokeColor=none;fillColor=none;align=center;verticalAlign=middle;whiteSpace=wrap;rounded=0;" vertex="1" parent="1">
          <mxGeometry x="226" y="365" width="90" height="30" as="geometry" />
        </mxCell>
        <mxCell id="WYB-sU8SRp4ZLdjS0Onn-27" value="Transfer In" style="text;html=1;strokeColor=none;fillColor=none;align=center;verticalAlign=middle;whiteSpace=wrap;rounded=0;" vertex="1" parent="1">
          <mxGeometry x="226" y="325" width="90" height="30" as="geometry" />
        </mxCell>
        <mxCell id="WYB-sU8SRp4ZLdjS0Onn-28" value="&lt;b&gt;Fun.Trading Inc&lt;/b&gt;" style="text;html=1;strokeColor=none;fillColor=none;align=center;verticalAlign=middle;whiteSpace=wrap;rounded=0;" vertex="1" parent="1">
          <mxGeometry x="207.5" y="125" width="105" height="30" as="geometry" />
        </mxCell>
      </root>
    </mxGraphModel>
  </diagram>
</mxfile>
